<svg xmlns="http://www.w3.org/2000/svg" width="20" height="20" viewBox="0 0 20 20.062">
  <defs>
    <style>
      .cls-1 {
        fill: #fff;
        fill-rule: evenodd;
      }
    </style>
  </defs>
  <path id="_" data-name="" class="cls-1" d="M1207.99,445.98l-1.04,1.047-5.77-5.784a6.393,6.393,0,0,1-1.09.8,8.623,8.623,0,0,1-1.24.6,7.282,7.282,0,0,1-1.37.374,8.383,8.383,0,0,1-1.42.125,7.735,7.735,0,0,1-3.16-.648,8.442,8.442,0,0,1-2.56-1.745,7.911,7.911,0,0,1-1.71-2.568,7.82,7.82,0,0,1-.62-3.116,8.06,8.06,0,0,1,2.33-5.734,8.1,8.1,0,0,1,2.56-1.72,8.008,8.008,0,0,1,3.16-.623,7.993,7.993,0,0,1,5.67,2.343,8.35,8.35,0,0,1,1.74,2.568,7.794,7.794,0,0,1,.64,3.166,8.663,8.663,0,0,1-.12,1.421,7.462,7.462,0,0,1-.37,1.371,9.336,9.336,0,0,1-.6,1.246,6.95,6.95,0,0,1-.79,1.1l5.76,5.784h0Zm-19.14-10.919a7.015,7.015,0,0,0,.55,2.792,7.121,7.121,0,0,0,1.54,2.293,7.322,7.322,0,0,0,2.31,1.571,6.992,6.992,0,0,0,2.81.573,6.828,6.828,0,0,0,2.79-.573,7.422,7.422,0,0,0,2.28-1.571,7.547,7.547,0,0,0,1.57-2.293,6.858,6.858,0,0,0,.57-2.792,7.036,7.036,0,0,0-.57-2.817,7.48,7.48,0,0,0-1.57-2.318,7.018,7.018,0,0,0-5.07-2.095,7.274,7.274,0,0,0-2.81.549,7.094,7.094,0,0,0-3.85,3.864,7.2,7.2,0,0,0-.55,2.817h0Z" transform="translate(-1188 -426.969)"/>
</svg>
